<svg width="27" height="32" viewBox="0 0 27 32" fill="none" xmlns="http://www.w3.org/2000/svg">
<path d="M13.416 9.12012C14.6909 9.12005 17.1185 7.40348 19.6211 7.66016C20.6682 7.68993 23.6487 8.06393 25.5713 10.7969C25.416 10.8875 22.0207 12.8328 22.0576 16.8311C22.0998 21.6201 26.352 23.2054 26.4092 23.2246C26.3831 23.3385 25.7414 25.5118 24.1455 27.7188C22.8121 29.6627 21.4153 31.5639 19.1963 31.5986C17.041 31.647 16.3157 30.3614 13.8438 30.3613C11.3488 30.3613 10.5761 31.5632 8.50879 31.6465C6.39539 31.7222 4.78022 29.5711 3.39844 27.6445C0.63619 23.7107 -1.5139 16.559 1.36914 11.6924C2.76615 9.30563 5.31337 7.76857 8.03613 7.72754C10.1521 7.68536 12.1157 9.12011 13.416 9.12012ZM19.6484 0C19.8596 1.87187 19.0983 3.71637 17.9863 5.07227C16.8259 6.4071 14.9692 7.42837 13.1611 7.29688C12.9246 5.49582 13.8408 3.58072 14.8662 2.41211C16.0253 1.08596 18.0389 0.069474 19.6484 0Z" fill="#403F3D"/>
</svg>
